<svg width="76" height="76" viewBox="0 0 76 76" fill="none" xmlns="http://www.w3.org/2000/svg">
<ellipse cx="37.7814" cy="22.9313" rx="7.64368" ry="7.64368" fill="#EC295D"/>
<rect x="16.5977" y="31.8853" width="43.2414" height="14.4138" rx="7.2069" fill="#EC295D"/>
<path d="M31.0117 31.8853H52.6324C56.6127 31.8853 59.8393 35.1119 59.8393 39.0922C59.8393 43.0724 56.6127 46.299 52.6324 46.299H31.0117V31.8853Z" fill="#FF7672"/>
<path d="M31.0117 31.8853V53.5059C31.0117 57.4862 34.2384 60.7128 38.2186 60.7128C42.1989 60.7128 45.4255 57.4862 45.4255 53.5059V46.299C45.4255 38.3385 38.9722 31.8853 31.0117 31.8853Z" fill="#FFB21D"/>
<path d="M31.0117 31.8853V53.5059C31.0117 57.4862 34.2384 60.7128 38.2186 60.7128C42.1989 60.7128 45.4255 57.4862 45.4255 53.5059V46.299C45.4255 38.3385 38.9722 31.8853 31.0117 31.8853Z" fill="white" fill-opacity="0.16"/>
</svg>
