<svg width="110" height="110" viewBox="0 0 110 110" fill="none" xmlns="http://www.w3.org/2000/svg">
<circle cx="55" cy="55" r="54.5" fill="#FF7672" stroke="#FF7672"/>
<rect x="52.6445" y="73.8154" width="5.78947" height="13.0263" rx="2.89474" fill="white"/>
<path d="M38.5361 55.9118C38.6401 54.535 37.6082 53.3346 36.2314 53.2307C34.8546 53.1268 33.6542 54.1587 33.5503 55.5355L38.5361 55.9118ZM33.5503 55.5355C33.2753 59.1794 34.0804 64.7411 37.2729 69.4703C40.5664 74.349 46.2654 78.1249 55.2207 78.1249V73.1249C47.8931 73.1249 43.7621 70.1465 41.417 66.6727C38.971 63.0494 38.3287 58.6604 38.5361 55.9118L33.5503 55.5355Z" fill="white"/>
<path d="M71.9053 55.9118C71.8013 54.535 72.8332 53.3346 74.21 53.2307C75.5868 53.1268 76.7872 54.1587 76.8911 55.5355L71.9053 55.9118ZM76.8911 55.5355C77.1661 59.1794 76.3611 64.7411 73.1685 69.4703C69.875 74.349 64.176 78.1249 55.2207 78.1249V73.1249C62.5483 73.1249 66.6793 70.1465 69.0244 66.6727C71.4704 63.0494 72.1127 58.6604 71.9053 55.9118L76.8911 55.5355Z" fill="white"/>
<rect x="41.0659" y="23.1577" width="28.9474" height="47.0395" rx="14.4737" fill="white"/>
</svg>
