<svg width="206" height="124" viewBox="0 0 206 124" fill="none" xmlns="http://www.w3.org/2000/svg">
<path d="M96.768 56.36V112.168H89.088V56.36H96.768ZM59.776 87.208C59.776 91.2187 60.3307 94.1627 61.44 96.04C62.5493 97.8747 64.256 98.792 66.56 98.792H67.2C69.504 98.792 71.2107 97.8747 72.32 96.04C73.4293 94.1627 73.984 91.2187 73.984 87.208V76.648C73.984 72.6373 73.4293 69.7147 72.32 67.88C71.2107 66.0027 69.504 65.064 67.2 65.064H66.56C64.256 65.064 62.5493 66.0027 61.44 67.88C60.3307 69.7147 59.776 72.6373 59.776 76.648V87.208ZM52.096 76.648C52.096 70.9733 53.2693 66.4507 55.616 63.08C58.0053 59.7093 61.6533 58.024 66.56 58.024H67.2C72.1067 58.024 75.7333 59.7093 78.08 63.08C80.4693 66.4507 81.664 70.9733 81.664 76.648V87.208C81.664 92.8827 80.4693 97.4053 78.08 100.776C75.7333 104.147 72.1067 105.832 67.2 105.832H66.56C61.6533 105.832 58.0053 104.147 55.616 100.776C53.2693 97.4053 52.096 92.8827 52.096 87.208V76.648ZM137.27 114.6C139.83 111.741 141.11 109.245 141.11 107.112C141.11 105.32 140.107 104.019 138.102 103.208C136.353 106.323 133.985 108.904 130.998 110.952C128.054 113.043 124.449 114.301 120.182 114.728C119.329 114.813 118.689 114.856 118.262 114.856C116.129 114.856 114.294 114.493 112.758 113.768C111.222 113.043 110.049 112.061 109.238 110.824C108.427 109.587 108.022 108.243 108.022 106.792C108.022 105.085 108.598 103.421 109.75 101.8C110.902 100.136 112.651 98.728 114.998 97.576C117.387 96.424 120.31 95.6773 123.766 95.336C126.241 95.1227 128.31 95.016 129.974 95.016C130.785 95.016 131.873 95.0587 133.238 95.144L134.582 91.368H142.646L140.854 96.488C143.755 97.4693 145.846 98.856 147.126 100.648C148.449 102.44 149.11 104.445 149.11 106.664C149.11 109.352 148.321 111.997 146.742 114.6H137.27ZM155.254 88.296H130.55V93.032H122.87V88.296H103.286V81.256H155.254V88.296ZM116.086 67.304C116.086 68.3707 116.406 69.2027 117.046 69.8C117.729 70.3547 118.817 70.632 120.31 70.632H138.23C139.723 70.632 140.79 70.3547 141.43 69.8C142.113 69.2027 142.454 68.3707 142.454 67.304V66.92C142.454 65.9387 142.113 65.192 141.43 64.68C140.747 64.168 139.51 63.8053 137.718 63.592C135.03 63.1653 132.214 62.952 129.27 62.952C126.369 62.952 123.553 63.1653 120.822 63.592C119.03 63.8053 117.793 64.168 117.11 64.68C116.427 65.192 116.086 65.9387 116.086 66.92V67.304ZM108.406 66.92C108.406 64.104 109.387 61.8 111.35 60.008C113.313 58.1733 116.129 57.0213 119.798 56.552C122.785 56.1253 125.942 55.912 129.27 55.912C132.641 55.912 135.798 56.1253 138.742 56.552C142.411 57.0213 145.227 58.1733 147.19 60.008C149.153 61.8 150.134 64.104 150.134 66.92V67.304C150.134 69.1387 149.686 70.8453 148.79 72.424C147.894 74.0027 146.55 75.2827 144.758 76.264C142.966 77.2027 140.79 77.672 138.23 77.672H120.31C117.75 77.672 115.574 77.2027 113.782 76.264C111.99 75.2827 110.646 74.0027 109.75 72.424C108.854 70.8453 108.406 69.1387 108.406 67.304V66.92ZM119.414 107.688C123.851 107.261 127.35 105.384 129.91 102.056C127.563 102.141 125.771 102.248 124.534 102.376C122.785 102.547 121.227 102.867 119.862 103.336C118.539 103.805 117.515 104.339 116.79 104.936C116.065 105.491 115.702 106.024 115.702 106.536C115.702 106.963 116.001 107.283 116.598 107.496C117.238 107.752 118.177 107.816 119.414 107.688Z" fill="white"/>
<path d="M8.472 13.076H9.468V23.948H8.472V13.076ZM3.744 13.916C5.352 13.916 6.504 15.392 6.504 17.696C6.504 20.012 5.352 21.488 3.744 21.488C2.148 21.488 0.996 20.012 0.996 17.696C0.996 15.392 2.148 13.916 3.744 13.916ZM3.744 14.816C2.688 14.816 1.944 15.944 1.944 17.696C1.944 19.46 2.688 20.612 3.744 20.612C4.812 20.612 5.544 19.46 5.544 17.696C5.544 15.944 4.812 14.816 3.744 14.816ZM11.6271 18.044H21.4671V18.86H11.6271V18.044ZM16.0311 18.392H17.0031V20.048H16.0311V18.392ZM16.0071 20.552H16.8591V20.888C16.8591 22.544 14.9391 23.636 12.6711 23.9L12.3471 23.132C14.3031 22.928 16.0071 22.04 16.0071 20.888V20.552ZM16.1751 20.552H17.0271V20.888C17.0271 22.076 18.7191 22.94 20.6871 23.132L20.3631 23.9C18.1071 23.636 16.1751 22.58 16.1751 20.888V20.552ZM16.5351 13.244C18.8871 13.244 20.3511 13.976 20.3511 15.236C20.3511 16.496 18.8871 17.228 16.5351 17.228C14.1711 17.228 12.7191 16.496 12.7191 15.236C12.7191 13.976 14.1711 13.244 16.5351 13.244ZM16.5351 14.012C14.7951 14.012 13.7391 14.456 13.7391 15.236C13.7391 16.004 14.7951 16.46 16.5351 16.46C18.2631 16.46 19.3311 16.004 19.3311 15.236C19.3311 14.456 18.2631 14.012 16.5351 14.012ZM30.5501 13.076H31.5461V23.948H30.5501V13.076ZM25.8221 13.916C27.4301 13.916 28.5821 15.392 28.5821 17.696C28.5821 20.012 27.4301 21.488 25.8221 21.488C24.2261 21.488 23.0741 20.012 23.0741 17.696C23.0741 15.392 24.2261 13.916 25.8221 13.916ZM25.8221 14.816C24.7661 14.816 24.0221 15.944 24.0221 17.696C24.0221 19.46 24.7661 20.612 25.8221 20.612C26.8901 20.612 27.6221 19.46 27.6221 17.696C27.6221 15.944 26.8901 14.816 25.8221 14.816ZM39.3469 19.76H40.1149V20.348C40.1149 21.764 39.2269 23.192 37.6669 23.792L37.1629 23.048C38.5309 22.556 39.3469 21.392 39.3469 20.348V19.76ZM39.5629 19.76H40.3069V20.348C40.3069 21.44 40.9549 22.604 42.2509 23.132L41.8309 23.888C40.2709 23.276 39.5629 21.788 39.5629 20.348V19.76ZM43.3549 19.76H44.0989V20.348C44.0989 21.62 43.3789 23.228 41.8309 23.888L41.4109 23.132C42.6949 22.544 43.3549 21.284 43.3549 20.348V19.76ZM43.5589 19.76H44.3269V20.348C44.3269 21.464 45.1309 22.58 46.5109 23.048L46.0069 23.792C44.4229 23.216 43.5589 21.848 43.5589 20.348V19.76ZM44.5309 13.1H45.5389V19.292H44.5309V13.1ZM39.7189 13.724C41.3629 13.724 42.5389 14.756 42.5389 16.256C42.5389 17.756 41.3629 18.776 39.7189 18.776C38.0749 18.776 36.8869 17.756 36.8869 16.256C36.8869 14.756 38.0749 13.724 39.7189 13.724ZM39.7189 14.552C38.6389 14.552 37.8589 15.248 37.8589 16.256C37.8589 17.264 38.6389 17.948 39.7189 17.948C40.7989 17.948 41.5789 17.264 41.5789 16.256C41.5789 15.248 40.7989 14.552 39.7189 14.552ZM52.5819 13.772C54.8379 13.772 56.5179 14.972 56.5179 16.772C56.5179 18.584 54.8379 19.772 52.5819 19.772C50.3259 19.772 48.6339 18.584 48.6339 16.772C48.6339 14.972 50.3259 13.772 52.5819 13.772ZM52.5819 14.588C50.8659 14.588 49.5939 15.464 49.5939 16.772C49.5939 18.068 50.8659 18.956 52.5819 18.956C54.2979 18.956 55.5699 18.068 55.5699 16.772C55.5699 15.464 54.2979 14.588 52.5819 14.588ZM47.6859 21.668H57.5139V22.508H47.6859V21.668ZM63.921 14.996H66.957V15.812H63.921V14.996ZM63.921 17.312H66.981V18.14H63.921V17.312ZM59.217 14.024H64.173V19.112H59.217V14.024ZM63.189 14.828H60.189V18.308H63.189V14.828ZM66.645 13.1H67.641V21.02H66.645V13.1ZM60.669 22.88H67.905V23.696H60.669V22.88ZM60.669 20.3H61.665V23.252H60.669V20.3ZM80.0258 13.076H81.0338V23.936H80.0258V13.076ZM80.7578 17.48H82.7618V18.308H80.7578V17.48ZM77.2538 14.252H78.2258C78.2258 17.336 76.8098 20.12 73.3058 21.884L72.7538 21.116C75.7538 19.592 77.2538 17.276 77.2538 14.408V14.252ZM73.2578 14.252H77.7698V15.068H73.2578V14.252ZM86.0128 13.76H86.9368C86.9368 15.908 86.2408 17.396 84.4408 18.62L83.7928 17.996C85.3528 16.976 86.0128 15.824 86.0128 13.904V13.76ZM84.0568 13.76H86.4928V14.576H84.0568V13.76ZM89.0248 13.76H89.9488C89.9488 15.944 89.3488 17.696 87.5848 19.148L86.8648 18.572C88.4608 17.324 89.0248 15.884 89.0248 13.892V13.76ZM87.3448 13.76H89.4688V14.576H87.3448V13.76ZM91.1488 13.088H92.1448V18.98H91.1488V13.088ZM91.8688 15.56H93.7528V16.388H91.8688V15.56ZM85.3048 19.52H86.2888V20.84H91.1608V19.52H92.1448V23.804H85.3048V19.52ZM86.2888 21.644V22.988H91.1608V21.644H86.2888ZM95.8039 14.168H102.788V14.996H95.8039V14.168ZM94.7719 21.596H104.576V22.424H94.7719V21.596ZM98.5759 17.72H99.5719V22.004H98.5759V17.72ZM102.416 14.168H103.4V15.248C103.4 16.592 103.4 18.08 103.004 20.276L102.008 20.144C102.416 18.068 102.416 16.544 102.416 15.248V14.168ZM107.407 21.74C107.343 22.02 107.255 22.324 107.143 22.652C107.039 22.98 106.923 23.304 106.795 23.624C106.675 23.952 106.555 24.26 106.435 24.548H105.667C105.739 24.244 105.811 23.916 105.883 23.564C105.955 23.22 106.023 22.88 106.087 22.544C106.151 22.2 106.199 21.888 106.231 21.608H107.323L107.407 21.74ZM111.776 18.044H121.616V18.86H111.776V18.044ZM116.18 18.392H117.152V20.048H116.18V18.392ZM116.156 20.552H117.008V20.888C117.008 22.544 115.088 23.636 112.82 23.9L112.496 23.132C114.452 22.928 116.156 22.04 116.156 20.888V20.552ZM116.324 20.552H117.176V20.888C117.176 22.076 118.868 22.94 120.836 23.132L120.512 23.9C118.256 23.636 116.324 22.58 116.324 20.888V20.552ZM116.684 13.244C119.036 13.244 120.5 13.976 120.5 15.236C120.5 16.496 119.036 17.228 116.684 17.228C114.32 17.228 112.868 16.496 112.868 15.236C112.868 13.976 114.32 13.244 116.684 13.244ZM116.684 14.012C114.944 14.012 113.888 14.456 113.888 15.236C113.888 16.004 114.944 16.46 116.684 16.46C118.412 16.46 119.48 16.004 119.48 15.236C119.48 14.456 118.412 14.012 116.684 14.012ZM127.723 13.328C130.063 13.328 131.539 14.096 131.539 15.38C131.539 16.664 130.063 17.42 127.723 17.42C125.371 17.42 123.907 16.664 123.907 15.38C123.907 14.096 125.371 13.328 127.723 13.328ZM127.723 14.12C125.995 14.12 124.927 14.576 124.927 15.38C124.927 16.172 125.995 16.64 127.723 16.64C129.439 16.64 130.519 16.172 130.519 15.38C130.519 14.576 129.439 14.12 127.723 14.12ZM124.015 20.216H131.419V23.792H124.015V20.216ZM130.447 21.02H124.999V22.988H130.447V21.02ZM122.815 18.356H132.619V19.16H122.815V18.356ZM141.738 13.076H142.734V23.948H141.738V13.076ZM137.01 13.916C138.618 13.916 139.77 15.392 139.77 17.696C139.77 20.012 138.618 21.488 137.01 21.488C135.414 21.488 134.262 20.012 134.262 17.696C134.262 15.392 135.414 13.916 137.01 13.916ZM137.01 14.816C135.954 14.816 135.21 15.944 135.21 17.696C135.21 19.46 135.954 20.612 137.01 20.612C138.078 20.612 138.81 19.46 138.81 17.696C138.81 15.944 138.078 14.816 137.01 14.816ZM150.534 19.76H151.302V20.348C151.302 21.764 150.414 23.192 148.854 23.792L148.35 23.048C149.718 22.556 150.534 21.392 150.534 20.348V19.76ZM150.75 19.76H151.494V20.348C151.494 21.44 152.142 22.604 153.438 23.132L153.018 23.888C151.458 23.276 150.75 21.788 150.75 20.348V19.76ZM154.542 19.76H155.286V20.348C155.286 21.62 154.566 23.228 153.018 23.888L152.598 23.132C153.882 22.544 154.542 21.284 154.542 20.348V19.76ZM154.746 19.76H155.514V20.348C155.514 21.464 156.318 22.58 157.698 23.048L157.194 23.792C155.61 23.216 154.746 21.848 154.746 20.348V19.76ZM155.718 13.1H156.726V19.292H155.718V13.1ZM150.906 13.724C152.55 13.724 153.726 14.756 153.726 16.256C153.726 17.756 152.55 18.776 150.906 18.776C149.262 18.776 148.074 17.756 148.074 16.256C148.074 14.756 149.262 13.724 150.906 13.724ZM150.906 14.552C149.826 14.552 149.046 15.248 149.046 16.256C149.046 17.264 149.826 17.948 150.906 17.948C151.986 17.948 152.766 17.264 152.766 16.256C152.766 15.248 151.986 14.552 150.906 14.552ZM163.769 13.772C166.025 13.772 167.705 14.972 167.705 16.772C167.705 18.584 166.025 19.772 163.769 19.772C161.513 19.772 159.821 18.584 159.821 16.772C159.821 14.972 161.513 13.772 163.769 13.772ZM163.769 14.588C162.053 14.588 160.781 15.464 160.781 16.772C160.781 18.068 162.053 18.956 163.769 18.956C165.485 18.956 166.757 18.068 166.757 16.772C166.757 15.464 165.485 14.588 163.769 14.588ZM158.873 21.668H168.701V22.508H158.873V21.668ZM175.109 14.996H178.145V15.812H175.109V14.996ZM175.109 17.312H178.169V18.14H175.109V17.312ZM170.405 14.024H175.361V19.112H170.405V14.024ZM174.377 14.828H171.377V18.308H174.377V14.828ZM177.833 13.1H178.829V21.02H177.833V13.1ZM171.857 22.88H179.093V23.696H171.857V22.88ZM171.857 20.3H172.853V23.252H171.857V20.3ZM184.325 13.604H185.309V15.188H188.369V13.604H189.341V18.38H184.325V13.604ZM185.309 15.956V17.576H188.369V15.956H185.309ZM191.297 13.088H192.293V18.872H191.297V13.088ZM191.861 15.476H193.889V16.292H191.861V15.476ZM184.985 23.06H185.621C187.349 23.06 188.189 23.024 189.209 22.82L189.317 23.564C188.249 23.792 187.397 23.816 185.621 23.816H184.985V23.06ZM184.961 19.472H188.501V21.956H185.945V23.588H184.985V21.236H187.541V20.228H184.961V19.472ZM188.957 19.472H192.293V23.888H191.309V20.276H188.957V19.472ZM195.952 14.168H202.936V14.996H195.952V14.168ZM194.92 21.596H204.724V22.424H194.92V21.596ZM198.724 17.72H199.72V22.004H198.724V17.72ZM202.564 14.168H203.548V15.248C203.548 16.592 203.548 18.08 203.152 20.276L202.156 20.144C202.564 18.068 202.564 16.544 202.564 15.248V14.168Z" fill="white"/>
<circle cx="5" cy="2" r="2" fill="#FFB21D"/>
<circle cx="116" cy="2" r="2" fill="#FFB21D"/>
<circle cx="17" cy="2" r="2" fill="#FFB21D"/>
<circle cx="128" cy="2" r="2" fill="#FFB21D"/>
</svg>
